<svg width="24" height="24" viewBox="0 0 24 24" fill="none" xmlns="http://www.w3.org/2000/svg">
<path fill-rule="evenodd" clip-rule="evenodd" d="M24 12C24 18.6274 18.6274 24 12 24C5.37258 24 0 18.6274 0 12C0 5.37258 5.37258 0 12 0C18.6274 0 24 5.37258 24 12ZM9.30958 12H8.72727C6.9198 12 5.45455 13.4653 5.45455 15.2727V16.6381C5.45455 17.3692 5.70774 18.0913 6.25814 18.5726C7.79273 19.9143 9.80143 20.7273 12 20.7273C14.1986 20.7273 16.2073 19.9143 17.7419 18.5726C18.2923 18.0913 18.5455 17.3692 18.5455 16.6381V15.2727C18.5455 13.4653 17.0802 12 15.2727 12H14.6901C13.8962 12.6682 12.9781 13.0909 11.9998 13.0909C11.0216 13.0909 10.1035 12.6682 9.30958 12ZM12 10.9091C13.8075 10.9091 15.2727 8.35843 15.2727 6.54899C15.2727 4.73956 13.8075 3.27273 12 3.27273C10.1925 3.27273 8.72727 4.73956 8.72727 6.54899C8.72727 8.35843 10.1925 10.9091 12 10.9091Z" fill="#F7F7F7"/>
</svg>
