<svg width="25" height="24" viewBox="0 0 25 24" fill="none" xmlns="http://www.w3.org/2000/svg">
<path fill-rule="evenodd" clip-rule="evenodd" d="M12.332 24C18.9594 24 24.332 18.6274 24.332 12C24.332 5.37258 18.9594 0 12.332 0C5.70461 0 0.332031 5.37258 0.332031 12C0.332031 18.6274 5.70461 24 12.332 24ZM10.0114 10.4222H15.5802V9.4941H10.9603C10.7086 9.4941 10.4673 9.59189 10.2893 9.76595C10.1114 9.94 10.0114 10.1761 10.0114 10.4222ZM10.0115 10.4223V11.5357H14.652C14.652 11.6577 14.6275 11.7784 14.5798 11.891C14.5321 12.0036 14.4622 12.1059 14.3741 12.1921C14.286 12.2783 14.1814 12.3467 14.0663 12.3933C13.9512 12.4399 13.8278 12.4639 13.7032 12.4639H10.0115V14.506H9.08333V10.4223H10.0115ZM8.2604 9.4941H7.33228V13.5779H8.2604V9.4941ZM4.17663 10.4223C4.51873 10.4227 4.84672 10.5858 5.08862 10.8318C5.33052 11.0778 5.46659 11.4113 5.46698 11.7592L5.47636 12.6252C5.47643 12.8779 5.5752 13.1202 5.75094 13.2988C5.92669 13.4775 6.16501 13.5778 6.41351 13.5778H6.40398V14.506H7.33211V13.5778H6.41351L6.40413 11.7592C6.40344 11.1586 6.16853 10.5829 5.75094 10.1583C5.33336 9.73369 4.76718 9.49482 4.17663 9.49411H2.69162V10.4222L4.17663 10.4223ZM1.7635 14.506L1.7635 10.4223C2.00965 10.4223 2.24572 10.5222 2.41978 10.7002C2.59383 10.8781 2.69162 11.1195 2.69162 11.3711V14.506H1.7635ZM19.2222 10.4222H22.9006V9.4941H17.3526C17.1009 9.4941 16.8596 9.5919 16.6816 9.76595C16.5037 9.94001 16.4037 10.1761 16.4037 10.4222H19.188V14.5053H20.1161V11.3704C20.1161 11.1188 20.0183 10.8774 19.8443 10.6995C19.6783 10.5298 19.4559 10.431 19.2222 10.4222Z" fill="#F7F7F7"/>
</svg>
