<svg width="64" height="64" viewBox="0 0 64 64" fill="none" xmlns="http://www.w3.org/2000/svg">
<path d="M36.1658 21.4263L27.6894 21.4353L24.3535 13.1924L36.1658 21.4263Z" fill="#F78419" stroke="#F78419" stroke-width="0.237169"/>
<path d="M24.3535 13.1927L39.5884 13.1699L36.1658 21.4267L24.3535 13.1927Z" fill="#F78419" stroke="#F78419" stroke-width="0.237169"/>
<path d="M27.6892 21.4352L6.25122 5.31055L24.3532 13.1923L27.6892 21.4352Z" fill="#E47719" stroke="#E47719" stroke-width="0.237169"/>
<path d="M57.6281 5.21216L36.166 21.4263L39.5886 13.1696L57.6281 5.21216Z" fill="#E17719" stroke="#E17719" stroke-width="0.237169"/>
<path d="M19.502 53.9092L22.6323 52.0979L23.1742 51.855L19.502 53.9092Z" fill="#E17719" stroke="#E17719" stroke-width="0.237169"/>
<path d="M40.7854 51.8645L41.2783 52.1082L44.3498 53.9256L40.7854 51.8645Z" fill="#E17719" stroke="#E17719" stroke-width="0.237169"/>
<path d="M15.0221 28.1369L5.35378 25.6916L4.82031 23.4246L15.0221 28.1369Z" fill="#773900" stroke="#773900" stroke-width="0.237169"/>
<path d="M5.70183 28.415L5.35376 25.6921L15.0221 28.1375L5.70183 28.415Z" fill="#773900" stroke="#773900" stroke-width="0.237169"/>
<path d="M7.07617 32.3334L15.0217 28.1377L19.1755 28.9437L7.07617 32.3334Z" fill="#773900" stroke="#773900" stroke-width="0.237169"/>
<path d="M5.7019 28.4152L15.0221 28.1377L7.07656 32.3334L5.7019 28.4152Z" fill="#773900" stroke="#773900" stroke-width="0.237169"/>
<path d="M48.9304 28.1139L59.1425 23.3735L58.6056 25.648L48.9304 28.1139Z" fill="#773900" stroke="#773900" stroke-width="0.237169"/>
<path d="M58.2538 28.3783L48.9304 28.1131L58.6056 25.6472L58.2538 28.3783Z" fill="#773900" stroke="#773900" stroke-width="0.237169"/>
<path d="M56.8732 32.3094L44.7351 28.9267L48.9306 28.1138L56.8732 32.3094Z" fill="#773900" stroke="#773900" stroke-width="0.237169"/>
<path d="M58.2538 28.379L56.873 32.3094L48.9304 28.1138L58.2538 28.379Z" fill="#773900" stroke="#773900" stroke-width="0.237169"/>
<path d="M15.3939 15.9419L15.0221 28.1374L4.82031 23.425L15.3939 15.9419Z" fill="#773900" stroke="#773900" stroke-width="0.237169"/>
<path d="M19.1754 28.9434L15.0217 28.1374L15.3936 15.9419L19.1754 28.9434Z" fill="#773900" stroke="#773900" stroke-width="0.237169"/>
<path d="M59.1424 23.3731L48.9304 28.1134L48.4958 15.897L59.1424 23.3731Z" fill="#773900" stroke="#773900" stroke-width="0.237169"/>
<path d="M48.4961 15.897L48.9306 28.1134L44.7351 28.9264L48.4961 15.897Z" fill="#773900" stroke="#773900" stroke-width="0.237169"/>
<path d="M19.502 53.9084L6.05743 58.6563L2.66992 45.2424L19.502 53.9084Z" fill="#E47719" stroke="#E47719" stroke-width="0.237169"/>
<path d="M61.3332 45.2556L57.9426 58.7051L44.3501 53.9259L61.3332 45.2556Z" fill="#E47719" stroke="#E47719" stroke-width="0.237169"/>
<path d="M3.56689 24.2584L4.82011 23.4246L5.35358 25.6916L3.56689 24.2584Z" fill="#773900" stroke="#773900" stroke-width="0.237169"/>
<path d="M15.3936 15.9419L27.6891 21.4351L19.1754 28.9434L15.3936 15.9419Z" fill="#773900" stroke="#773900" stroke-width="0.237169"/>
<path d="M44.7355 28.9264L36.166 21.4259L48.4965 15.897L44.7355 28.9264Z" fill="#773900" stroke="#773900" stroke-width="0.237169"/>
<path d="M5.70181 28.415L3.93335 26.7026L5.35374 25.6921L5.70181 28.415Z" fill="#773900" stroke="#773900" stroke-width="0.237169"/>
<path d="M60.3966 24.2075L58.6055 25.648L59.1424 23.3735L60.3966 24.2075Z" fill="#773900" stroke="#773900" stroke-width="0.237169"/>
<path d="M15.4204 33.4023L2.66992 45.2428L7.07656 32.333L15.4204 33.4023Z" fill="#F78419" stroke="#F78419" stroke-width="0.237169"/>
<path d="M58.2539 28.3783L58.6057 25.6472L60.027 26.6583L58.2539 28.3783Z" fill="#773900" stroke="#773900" stroke-width="0.237169"/>
<path d="M4.82017 23.4254L3.19092 14.0117L15.3938 15.9422L4.82017 23.4254Z" fill="#773900" stroke="#773900" stroke-width="0.237169"/>
<path d="M7.07623 32.3327L4.53955 29.1835L5.70157 28.4146L7.07623 32.3327Z" fill="#773900" stroke="#773900" stroke-width="0.237169"/>
<path d="M2.66992 45.2425L13.451 43.9507L19.502 53.9084L2.66992 45.2425Z" fill="#E47719" stroke="#E47719" stroke-width="0.237169"/>
<path d="M13.451 43.9508L2.66992 45.2426L15.4204 33.4021L13.451 43.9508Z" fill="#F78419" stroke="#F78419" stroke-width="0.237169"/>
<path d="M48.4053 33.3885L56.8731 32.3093L61.333 45.2552L48.4053 33.3885Z" fill="#F78419" stroke="#F78419" stroke-width="0.237169"/>
<path d="M56.873 32.3096L58.2539 28.3792L59.4166 29.1487L56.873 32.3096Z" fill="#773900" stroke="#773900" stroke-width="0.237169"/>
<path d="M48.4958 15.8972L60.7481 13.9277L59.1424 23.3733L48.4958 15.8972Z" fill="#773900" stroke="#773900" stroke-width="0.237169"/>
<path d="M44.3501 53.9258L50.3766 43.9565L61.3332 45.2555L44.3501 53.9258Z" fill="#E47719" stroke="#E47719" stroke-width="0.237169"/>
<path d="M48.4053 33.3879L61.333 45.2547L50.3764 43.9557L48.4053 33.3879Z" fill="#F78419" stroke="#F78419" stroke-width="0.237169"/>
<path d="M7.07617 32.3337L19.1755 28.9441L15.42 33.403L7.07617 32.3337Z" fill="#F78419" stroke="#F78419" stroke-width="0.237169"/>
<path d="M56.8732 32.3087L48.4053 33.3879L44.7351 28.926L56.8732 32.3087Z" fill="#F78419" stroke="#F78419" stroke-width="0.237169"/>
<path d="M19.1758 28.9434L27.6894 21.4351L28.356 33.5592L19.1758 28.9434Z" fill="#E47719" stroke="#E47719" stroke-width="0.237169"/>
<path d="M28.3558 33.5599L15.4202 33.403L19.1756 28.9441L28.3558 33.5599Z" fill="#E47719" stroke="#E47719" stroke-width="0.237169"/>
<path d="M44.7355 28.926L48.4057 33.3879L35.4045 33.5557L44.7355 28.926Z" fill="#E47719" stroke="#E47719" stroke-width="0.237169"/>
<path d="M35.4045 33.5557L36.166 21.4255L44.7355 28.926L35.4045 33.5557Z" fill="#E47719" stroke="#E47719" stroke-width="0.237169"/>
<path d="M6.25122 5.31055L27.6892 21.4352L15.3937 15.942L6.25122 5.31055Z" fill="#773900" stroke="#773900" stroke-width="0.237169"/>
<path d="M15.3938 15.942L3.19092 14.0115L6.25137 5.31055L15.3938 15.942Z" fill="#773900" stroke="#773900" stroke-width="0.237169"/>
<path d="M57.6275 5.21216L60.7481 13.9279L48.4958 15.8974L57.6275 5.21216Z" fill="#773900" stroke="#773900" stroke-width="0.237169"/>
<path d="M48.4965 15.8974L36.166 21.4263L57.6281 5.21216L48.4965 15.8974Z" fill="#773900" stroke="#773900" stroke-width="0.237169"/>
<path d="M27.6892 21.4345L36.1655 21.4255L35.4041 33.5557L27.6892 21.4345Z" fill="#F78419" stroke="#F78419" stroke-width="0.237169"/>
<path d="M35.4041 33.5563L28.3558 33.5592L27.6892 21.4351L35.4041 33.5563Z" fill="#F78419" stroke="#F78419" stroke-width="0.237169"/>
<path d="M19.502 53.9093L13.4509 43.9516L20.6979 43.6843L19.502 53.9093Z" fill="#CD6200" stroke="#CD6200" stroke-width="0.237169"/>
<path d="M44.3503 53.9256L43.0725 43.6868L50.3768 43.9564L44.3503 53.9256Z" fill="#CD6200" stroke="#CD6200" stroke-width="0.237169"/>
<path d="M20.5766 38.4558L15.4202 33.4021L28.3558 33.559L20.5766 38.4558Z" fill="#CD6200" stroke="#CD6200" stroke-width="0.237169"/>
<path d="M15.4202 33.4021L20.5766 38.4558L20.6978 43.6835L15.4202 33.4021Z" fill="#E47424" stroke="#E47424" stroke-width="0.237169"/>
<path d="M15.4203 33.4021L20.6979 43.6835L13.4509 43.9508L15.4203 33.4021Z" fill="#F78419" stroke="#F78419" stroke-width="0.237169"/>
<path d="M35.4045 33.5558L48.4057 33.3879L43.2069 38.4521L35.4045 33.5558Z" fill="#CD6200" stroke="#CD6200" stroke-width="0.237169"/>
<path d="M48.4057 33.3879L43.0725 43.6861L43.2069 38.4521L48.4057 33.3879Z" fill="#E47424" stroke="#E47424" stroke-width="0.237169"/>
<path d="M50.3768 43.9557L43.0725 43.6861L48.4057 33.3879L50.3768 43.9557Z" fill="#F78419" stroke="#F78419" stroke-width="0.237169"/>
<path d="M22.0489 55.4954L19.502 53.9082L26.8177 54.9701L22.0489 55.4954Z" fill="#C0AC9D" stroke="#C0AC9D" stroke-width="0.237169"/>
<path d="M36.7817 54.9783L44.3503 53.9258L41.743 55.5112L36.7817 54.9783Z" fill="#C0AC9D" stroke="#C0AC9D" stroke-width="0.237169"/>
<path d="M26.7451 52.2031L26.8177 54.9707L19.502 53.9088L26.7451 52.2031Z" fill="#D6C2B2" stroke="#D6C2B2" stroke-width="0.237169"/>
<path d="M19.502 53.909L27.3905 46.8235L26.7451 52.2033L19.502 53.909Z" fill="#D6C2B2" stroke="#D6C2B2" stroke-width="0.237169"/>
<path d="M27.3905 46.8239L19.502 53.9093L20.6979 43.6843L27.3905 46.8239Z" fill="#E47719" stroke="#E47719" stroke-width="0.237169"/>
<path d="M36.8064 52.209L44.3503 53.9255L36.7817 54.978L36.8064 52.209Z" fill="#D6C2B2" stroke="#D6C2B2" stroke-width="0.237169"/>
<path d="M44.3502 53.9253L36.8063 52.2088L36.1541 46.8257L44.3502 53.9253Z" fill="#D6C2B2" stroke="#D6C2B2" stroke-width="0.237169"/>
<path d="M36.1541 46.826L43.0724 43.6868L44.3502 53.9256L36.1541 46.826Z" fill="#E47719" stroke="#E47719" stroke-width="0.237169"/>
<path d="M28.3559 33.5598L25.2227 36.2951L20.5767 38.4567L28.3559 33.5598Z" fill="#CD6200" stroke="#CD6200" stroke-width="0.237169"/>
<path d="M43.2069 38.4522L38.5474 36.2905L35.4045 33.5559L43.2069 38.4522Z" fill="#CD6200" stroke="#CD6200" stroke-width="0.237169"/>
<path d="M27.1179 40.1053L20.5767 38.4558L25.2227 36.2942L27.1179 40.1053Z" fill="#243343" stroke="#243343" stroke-width="0.237169"/>
<path d="M20.6978 43.6838L20.5767 38.4561L27.1179 40.1055L20.6978 43.6838Z" fill="#F78419" stroke="#F78419" stroke-width="0.237169"/>
<path d="M36.626 40.1043L38.5473 36.2903L43.2068 38.452L36.626 40.1043Z" fill="#243343" stroke="#243343" stroke-width="0.237169"/>
<path d="M43.0724 43.6866L36.626 40.1049L43.2068 38.4526L43.0724 43.6866Z" fill="#F78419" stroke="#F78419" stroke-width="0.237169"/>
<path d="M25.2227 36.2951L28.3558 33.5598L27.1178 40.1061L25.2227 36.2951Z" fill="#CD6200" stroke="#CD6200" stroke-width="0.237169"/>
<path d="M38.5474 36.2905L36.6261 40.1045L35.4045 33.5559L38.5474 36.2905Z" fill="#CD6200" stroke="#CD6200" stroke-width="0.237169"/>
<path d="M27.1179 40.1061L28.3559 33.5598L28.6183 37.3861L27.1179 40.1061Z" fill="#E47424" stroke="#E47424" stroke-width="0.237169"/>
<path d="M28.6183 37.3851L28.356 33.5588L35.4043 33.5559L28.6183 37.3851Z" fill="#F78419" stroke="#F78419" stroke-width="0.237169"/>
<path d="M35.4041 33.5559L35.1041 37.3838L28.6182 37.3851L35.4041 33.5559Z" fill="#F78419" stroke="#F78419" stroke-width="0.237169"/>
<path d="M36.6258 40.1045L35.1042 37.3838L35.4042 33.5559L36.6258 40.1045Z" fill="#E17719" stroke="#E17719" stroke-width="0.237169"/>
<path d="M26.8178 54.9705L27.2464 57.1738L22.0491 55.4957L26.8178 54.9705Z" fill="#C0AC9D" stroke="#C0AC9D" stroke-width="0.237169"/>
<path d="M41.7426 55.5104L36.3411 57.1813L36.7813 54.9775L41.7426 55.5104Z" fill="#C0AC9D" stroke="#C0AC9D" stroke-width="0.237169"/>
<path d="M27.3906 46.8232L20.698 43.6837L27.1181 40.1055L27.3906 46.8232Z" fill="#F78419" stroke="#F78419" stroke-width="0.237169"/>
<path d="M36.626 40.1047L43.0724 43.6864L36.1541 46.8257L36.626 40.1047Z" fill="#F78419" stroke="#F78419" stroke-width="0.237169"/>
<path d="M28.6183 37.3857L28.5211 46.0358L27.1179 40.1058L28.6183 37.3857Z" fill="#E47424" stroke="#E47424" stroke-width="0.237169"/>
<path d="M27.1179 40.1055L28.5211 46.0355L27.3904 46.8232L27.1179 40.1055Z" fill="#F78419" stroke="#F78419" stroke-width="0.237169"/>
<path d="M35.1045 37.3845L36.6261 40.1053L35.0227 46.0376L35.1045 37.3845Z" fill="#E47424" stroke="#E47424" stroke-width="0.237169"/>
<path d="M36.1541 46.8257L35.0227 46.037L36.6261 40.1047L36.1541 46.8257Z" fill="#F78419" stroke="#F78419" stroke-width="0.237169"/>
<path d="M28.6182 37.3859L35.1041 37.3845L35.0223 46.0376L28.6182 37.3859Z" fill="#F78419" stroke="#F78419" stroke-width="0.237169"/>
<path d="M35.0224 46.0374L28.521 46.0358L28.6182 37.3857L35.0224 46.0374Z" fill="#F78419" stroke="#F78419" stroke-width="0.237169"/>
<path d="M27.246 57.1741L26.8174 54.9707L26.7449 52.2031L27.246 57.1741Z" fill="#C0AC9D" stroke="#C0AC9D" stroke-width="0.237169"/>
<path d="M36.8059 52.209L36.7813 54.978L36.3411 57.1818L36.8059 52.209Z" fill="#C0AC9D" stroke="#C0AC9D" stroke-width="0.237169"/>
<path d="M26.7449 52.2032L27.3177 51.4167L27.246 57.1742L26.7449 52.2032Z" fill="#C0AC9D" stroke="#C0AC9D" stroke-width="0.237169"/>
<path d="M27.2463 57.1742L27.3181 51.4167L36.2102 51.4215L27.2463 57.1742Z" fill="#C0AC9D" stroke="#C0AC9D" stroke-width="0.237169"/>
<path d="M36.2102 51.4216L36.3414 57.182L27.2463 57.1743L36.2102 51.4216Z" fill="#C0AC9D" stroke="#C0AC9D" stroke-width="0.237169"/>
<path d="M36.3409 57.182L36.2097 51.4216L36.8058 52.2092L36.3409 57.182Z" fill="#C0AC9D" stroke="#C0AC9D" stroke-width="0.237169"/>
<path d="M27.3177 51.4168L26.7449 52.2033L27.3902 46.8235L27.3177 51.4168Z" fill="#262626" stroke="#262626" stroke-width="0.237169"/>
<path d="M36.1541 46.8257L36.8063 52.2088L36.2102 51.4213L36.1541 46.8257Z" fill="#262626" stroke="#262626" stroke-width="0.237169"/>
<path d="M28.4358 46.6315L28.5208 46.0359L35.0222 46.0375L28.4358 46.6315Z" fill="#262626" stroke="#262626" stroke-width="0.237169"/>
<path d="M27.3901 46.8236L28.5208 46.0359L28.4358 46.6315L27.3901 46.8236Z" fill="#262626" stroke="#262626" stroke-width="0.237169"/>
<path d="M35.0222 46.0371L35.0613 46.633L28.4358 46.6311L35.0222 46.0371Z" fill="#262626" stroke="#262626" stroke-width="0.237169"/>
<path d="M35.0618 46.633L35.0227 46.0371L36.1541 46.8257L35.0618 46.633Z" fill="#262626" stroke="#262626" stroke-width="0.237169"/>
<path d="M27.3904 46.8235L27.7122 47.4485L27.3179 51.4168L27.3904 46.8235Z" fill="#262626" stroke="#262626" stroke-width="0.237169"/>
<path d="M28.4358 46.6316L27.712 47.4486L27.3901 46.8236L28.4358 46.6316Z" fill="#262626" stroke="#262626" stroke-width="0.237169"/>
<path d="M36.2102 51.4213L35.7859 47.4507L36.1541 46.8257L36.2102 51.4213Z" fill="#262626" stroke="#262626" stroke-width="0.237169"/>
<path d="M36.1541 46.8256L35.7859 47.4506L35.0618 46.6328L36.1541 46.8256Z" fill="#262626" stroke="#262626" stroke-width="0.237169"/>
<path d="M36.21 51.4216L27.3179 51.4168L27.7122 47.4485L36.21 51.4216Z" fill="#262626" stroke="#262626" stroke-width="0.237169"/>
<path d="M27.7122 47.4485L35.7856 47.4511L36.2099 51.4216L27.7122 47.4485Z" fill="#262626" stroke="#262626" stroke-width="0.237169"/>
<path d="M27.7122 47.4486L28.436 46.6316L35.0615 46.6335L27.7122 47.4486Z" fill="#262626" stroke="#262626" stroke-width="0.237169"/>
<path d="M35.0615 46.6328L35.7856 47.4506L27.7122 47.448L35.0615 46.6328Z" fill="#262626" stroke="#262626" stroke-width="0.237169"/>
</svg>
