<svg width="84" height="32" viewBox="0 0 84 32" fill="none" xmlns="http://www.w3.org/2000/svg">
<path fill-rule="evenodd" clip-rule="evenodd" d="M2.67516 2.71186H18.7261V0H5.41008C4.68474 0 3.98909 0.285732 3.4762 0.794304C2.9633 1.30288 2.67516 1.99264 2.67516 2.71186ZM2.67516 5.42373V2.71186L0 2.71186V5.42373H2.67516ZM16.051 11.9322C16.0501 10.9247 15.6162 10.0099 14.9153 9.29749C14.2145 8.58507 13.2969 8.1365 12.3057 8.13559H5.35032C4.63028 8.13559 3.97949 7.89276 3.47034 7.3752C2.96119 6.85763 2.67516 6.15568 2.67516 5.42373H12.2731C13.9839 5.42578 15.6241 6.11754 16.8338 7.34728C18.0436 8.57702 18.7241 10.1931 18.7261 11.9322H16.051ZM16.051 11.9322C16.051 12.2884 15.9802 12.6411 15.8427 12.9702C15.7053 13.2993 15.5038 13.5983 15.2499 13.8501C14.9959 14.1019 14.6944 14.3017 14.3626 14.4379C14.0308 14.5741 13.6751 14.6442 13.316 14.6441H0V11.9322H16.051Z" fill="#F7F7F7"/>
<path fill-rule="evenodd" clip-rule="evenodd" d="M23.0062 0H20.3311V14.6441H23.0062V8.13559C23.0062 8.86754 23.2922 9.5695 23.8014 10.0871C24.3105 10.6046 24.9613 10.8475 25.6814 10.8475H32.6368C33.6279 10.8484 34.5456 11.2969 35.2464 12.0094C35.9472 12.7218 36.3811 13.6366 36.382 14.6441H39.0572C39.0552 12.905 38.3746 11.2889 37.1649 10.0591C35.9552 8.82941 34.315 8.13764 32.6041 8.13559H25.6814V6.50847H32.5286C34.2595 6.50644 35.9189 5.82008 37.1428 4.59994C38.3667 3.37981 39.0552 1.72553 39.0572 0H36.382C36.3809 0.999578 35.9106 1.95791 35.2016 2.66472C34.4926 3.37153 33.5313 3.76911 32.5286 3.77023H28.4272C27.6989 3.77046 27.0005 4.05904 26.4855 4.57254C25.9706 5.08604 25.6814 5.78239 25.6814 6.50847H23.0062V0Z" fill="#F7F7F7"/>
<path d="M43.3373 0H40.6621V14.6441H43.3373V0Z" fill="#F7F7F7"/>
<path fill-rule="evenodd" clip-rule="evenodd" d="M44.9424 0H47.6175V11.9322H44.9424V0ZM47.6175 11.9322C47.6175 12.6514 47.9057 13.3412 48.4186 13.8498C48.9315 14.3583 49.6271 14.6441 50.3525 14.6441H63.6685V11.9322H47.6175Z" fill="#F7F7F7"/>
<path fill-rule="evenodd" clip-rule="evenodd" d="M65.2734 0H67.9486V11.9322H65.2734V0ZM67.9486 11.9322C67.9486 12.6514 68.2367 13.3412 68.7496 13.8498C69.2625 14.3583 69.9582 14.6441 70.6835 14.6441H83.9996V11.9322H67.9486Z" fill="#F7F7F7"/>
<path fill-rule="evenodd" clip-rule="evenodd" d="M0 17.356H2.67516V29.2882H0V17.356ZM2.67516 29.2882C2.67516 30.0074 2.9633 30.6971 3.4762 31.2057C3.98909 31.7143 4.68474 32 5.41008 32H18.7261V29.2882H2.67516Z" fill="#F7F7F7"/>
<path fill-rule="evenodd" clip-rule="evenodd" d="M24.146 21.2297C24.8469 20.5173 25.7603 20.0687 26.7514 20.0678L36.382 20.0678L36.382 26.5763L23.0062 26.5763V23.9157C23.0071 22.9081 23.4452 21.9422 24.146 21.2297ZM36.382 29.2882L25.7411 29.2882C25.0158 29.2882 24.3201 29.0024 23.8073 28.4939C23.2944 27.9853 23.0062 27.2955 23.0062 26.5763V32H20.3311V23.9157C20.3331 22.1758 21.0142 20.5079 22.2248 19.278C23.4355 18.0481 25.0399 17.3569 26.7514 17.356H33.7062C34.416 17.3562 35.0966 17.647 35.5983 18.1646C36.1001 18.6821 36.382 19.336 36.382 20.0678H39.0572V26.5763H39.0571C39.0571 27.3081 38.7752 27.962 38.2735 28.4795C37.7718 28.9969 37.0915 29.2878 36.382 29.2882ZM36.382 29.2882H39.0572V32H36.382V29.2882Z" fill="#F7F7F7"/>
<path fill-rule="evenodd" clip-rule="evenodd" d="M52.9678 20.0678H43.3373C43.3373 19.3486 43.6254 18.6588 44.1383 18.1503C44.6512 17.6417 45.3468 17.356 46.0722 17.356H52.9352H52.9678V17.356C54.6689 17.3615 56.4524 17.634 57.5156 18.7119C58.5857 19.7966 59.3862 21.0406 59.3882 22.7797H56.7131C56.7122 21.7722 56.178 21.1526 55.643 20.6102C55.1099 20.0698 53.9672 20.0687 52.9785 20.0678L52.9678 20.0678H52.9678ZM43.3373 22.7797V20.0678L40.6621 20.0678V29.2882H43.3373V32H53.9781C54.3373 32.0001 54.6929 31.9301 55.0247 31.7938C55.3565 31.6576 55.658 31.4579 55.912 31.206C56.166 30.9542 56.3674 30.6552 56.5048 30.3261C56.6423 29.9971 56.7131 29.6444 56.7131 29.2882H59.3882C59.3862 27.549 58.7057 25.933 57.496 24.7032C56.2862 23.4735 54.646 22.7817 52.9352 22.7797L43.3373 22.7797ZM43.3373 22.7797C43.3373 23.5116 43.6233 24.2136 44.1325 24.7312C44.6416 25.2487 45.2924 25.4916 46.0124 25.4916H52.9678C53.959 25.4925 54.8766 25.941 55.5774 26.6534C56.2783 27.3659 56.7122 28.2806 56.7131 29.2882H43.3373V22.7797Z" fill="#F7F7F7"/>
<path fill-rule="evenodd" clip-rule="evenodd" d="M63.6683 20.0678H79.7193V17.356H66.4032C65.6779 17.356 64.9823 17.6417 64.4694 18.1503C63.9565 18.6588 63.6683 19.3486 63.6683 20.0678ZM60.9932 20.0678H63.6683V22.7797H60.9932V20.0678ZM79.7193 29.2882H77.0441C77.0432 28.2806 76.6093 27.3659 75.9085 26.6534C75.2077 25.941 74.29 25.4925 73.2989 25.4916H66.3435C65.6234 25.4916 64.9727 25.2487 64.4635 24.7312C63.9544 24.2136 63.6683 23.5116 63.6683 22.7797L73.2663 22.7797C74.9771 22.7817 76.6173 23.4735 77.827 24.7032C79.0368 25.933 79.7173 27.549 79.7193 29.2882ZM60.9932 32H74.3092C74.6683 32.0001 75.0239 31.9301 75.3557 31.7938C75.6876 31.6576 75.9891 31.4579 76.243 31.206C76.497 30.9542 76.6984 30.6552 76.8359 30.3261C76.9734 29.9971 77.0441 29.6444 77.0441 29.2882H60.9932V32Z" fill="#F7F7F7"/>
</svg>
