<svg width="32" height="32" viewBox="0 0 32 32" fill="none" xmlns="http://www.w3.org/2000/svg">
<rect width="32" height="32" rx="16" fill="#262626"/>
<path fill-rule="evenodd" clip-rule="evenodd" d="M16 32C24.8366 32 32 24.8366 32 16C32 7.16344 24.8366 0 16 0C7.16344 0 0 7.16344 0 16C0 24.8366 7.16344 32 16 32ZM12.9058 13.8963H20.3309V12.6588H14.171C13.8355 12.6588 13.5137 12.7892 13.2764 13.0213C13.0391 13.2533 12.9058 13.5681 12.9058 13.8963ZM12.9059 13.8964V15.381H19.0934C19.0934 15.5435 19.0606 15.7045 18.997 15.8547C18.9334 16.0048 18.8403 16.1413 18.7228 16.2562C18.6053 16.3711 18.4658 16.4622 18.3123 16.5244C18.1588 16.5866 17.9943 16.6185 17.8282 16.6185H12.9059V19.3414H11.6684V13.8964H12.9059ZM10.5712 12.6588H9.33366V18.1038H10.5712V12.6588ZM5.12613 13.8963C5.58226 13.8969 6.01958 14.1144 6.34212 14.4424C6.66465 14.7704 6.84608 15.2151 6.8466 15.6789L6.8591 16.8336C6.8592 17.1705 6.99089 17.4936 7.22522 17.7318C7.45954 17.97 7.77731 18.1038 8.10864 18.1038H8.09594V19.3413H9.33344V18.1038H8.10864L8.09613 15.6789C8.09521 14.8782 7.782 14.1106 7.22522 13.5444C6.66843 12.9782 5.91354 12.6598 5.12613 12.6588H3.14612V13.8963L5.12613 13.8963ZM1.90862 19.3414L1.90862 13.8964C2.23682 13.8964 2.55158 14.0296 2.78366 14.2669C3.01573 14.5042 3.14612 14.826 3.14612 15.1615L3.14612 19.3414H1.90862ZM25.1869 13.8963L30.0914 13.8963V12.6588L22.694 12.6588C22.3585 12.6588 22.0367 12.7892 21.7995 13.0213C21.5622 13.2533 21.4289 13.5681 21.4289 13.8963H25.1413V19.3405H26.3788V15.1606C26.3788 14.8251 26.2484 14.5033 26.0163 14.266C25.795 14.0398 25.4985 13.9081 25.1869 13.8963Z" fill="#F2F2F2"/>
</svg>
