<svg width="32" height="32" viewBox="0 0 32 32" fill="none" xmlns="http://www.w3.org/2000/svg">
<rect width="32" height="32" rx="16" fill="#F7F7F7"/>
<path fill-rule="evenodd" clip-rule="evenodd" d="M21.0319 7.87652C21.8007 7.25408 22.9044 7.05694 23.9056 7.55723C25.6756 8.44995 25.8887 10.8676 24.3081 12.0483L21.2758 14.309C20.9847 16.9427 18.7454 18.992 16.0236 18.992C13.3054 18.992 11.0688 16.9478 10.773 14.3191L7.6946 12.0239C6.11481 10.8439 6.32644 8.42601 8.09719 7.53285C9.11055 7.02641 10.2281 7.23587 10.9979 7.87652H21.0319ZM8.43786 11.0369L10.711 12.7396V9.90175C10.711 8.85238 9.60438 8.16398 8.65466 8.63711C7.70962 9.11417 7.58398 10.4088 8.43786 11.0369ZM21.3099 12.7503L23.5648 11.0613C24.4177 10.434 24.2944 9.13923 23.3481 8.66147C22.431 8.20485 21.4187 8.82946 21.3099 9.75446V12.7503ZM17.0281 20.083C16.6992 20.1146 16.3625 20.1305 16.0214 20.1305C15.6804 20.1305 15.3436 20.1146 15.0148 20.083C14.9259 20.0745 14.8467 20.1152 14.8467 20.1706V21.2894H14.8305C14.1818 21.2894 13.6558 21.8132 13.6558 22.4593H18.3547C18.3547 21.8187 17.8373 21.2998 17.1962 21.2909V20.1706C17.1962 20.1152 17.1169 20.0745 17.0281 20.083ZM19.5294 23.6599H12.481C12.1566 23.6599 11.8937 23.9218 11.8937 24.2449V25.415C11.8937 25.7381 12.1566 26 12.481 26H19.5294C19.8538 26 20.1168 25.7381 20.1168 25.415V24.2449C20.1168 23.9218 19.8538 23.6599 19.5294 23.6599Z" fill="#262626"/>
</svg>
