<svg width="32" height="32" viewBox="0 0 32 32" fill="none" xmlns="http://www.w3.org/2000/svg">
<path fill-rule="evenodd" clip-rule="evenodd" d="M16 32C24.8366 32 32 24.8366 32 16C32 7.16344 24.8366 0 16 0C7.16344 0 0 7.16344 0 16C0 24.8366 7.16344 32 16 32ZM25.9221 11.1807H8.91282C8.91282 10.4289 9.21816 9.7078 9.76168 9.17616C10.3052 8.64452 11.0424 8.34583 11.811 8.34583H25.9221V11.1807ZM8.91278 11.1807H6.0779V14.0156H8.91278V11.1807ZM23.0872 20.8193H25.9221C25.92 19.0013 25.1988 17.3119 23.9168 16.0264C22.6349 14.7409 20.8968 14.0177 19.0838 14.0156L8.91282 14.0156C8.91282 14.7807 9.21593 15.5145 9.75547 16.0556C10.295 16.5966 10.9847 16.8505 11.7477 16.8505H19.1184C20.1687 16.8514 21.1411 17.3203 21.8838 18.0651C22.6265 18.8098 23.0863 19.7661 23.0872 20.8193ZM20.189 23.6542H6.0779V20.8193H23.0872C23.0872 21.1917 23.0122 21.5604 22.8665 21.9044C22.7209 22.2484 22.5074 22.5609 22.2383 22.8242C21.9691 23.0875 21.6496 23.2962 21.298 23.4387C20.9464 23.5811 20.5695 23.6543 20.189 23.6542Z" fill="#F2F2F2"/>
</svg>
